<?xml version="1.0" standalone="no"?>
<!DOCTYPE svg PUBLIC "-//W3C//DTD SVG 20010904//EN"
 "http://www.w3.org/TR/2001/REC-SVG-20010904/DTD/svg10.dtd">
<svg version="1.0" xmlns="http://www.w3.org/2000/svg"
 width="500.000000pt" height="296.000000pt" viewBox="0 0 500.000000 296.000000"
 preserveAspectRatio="xMidYMid meet">

<g transform="translate(0.000000,296.000000) scale(0.100000,-0.100000)"
fill="#000000" stroke="none">
<path d="M1790 2654 c-25 -7 -55 -13 -68 -13 -22 -1 -28 -3 -90 -34 -19 -9
-42 -17 -53 -17 -10 0 -19 -4 -19 -8 0 -4 -12 -13 -27 -19 -58 -25 -213 -123
-253 -160 -14 -13 -33 -26 -42 -29 -10 -3 -18 -10 -18 -15 0 -5 -4 -9 -10 -9
-5 0 -22 -12 -38 -27 -16 -16 -42 -39 -59 -53 -143 -117 -383 -357 -441 -441
-9 -13 -26 -34 -39 -46 -13 -12 -23 -25 -23 -29 0 -6 -51 -74 -82 -108 -10
-11 -18 -23 -18 -26 0 -4 -11 -20 -26 -36 -30 -35 -132 -187 -141 -211 -4 -10
-9 -20 -12 -23 -12 -10 -71 -143 -71 -159 0 -6 -4 -19 -10 -29 -14 -26 -40
-168 -40 -224 0 -48 23 -173 39 -213 5 -11 17 -40 27 -65 10 -25 24 -51 31
-58 7 -7 13 -18 13 -23 0 -23 122 -126 187 -158 130 -65 176 -76 318 -76 115
0 138 4 260 42 88 28 254 113 263 135 2 4 10 8 18 8 8 0 14 4 14 8 0 5 10 14
23 19 25 12 98 77 231 206 115 110 150 114 163 17 3 -22 10 -40 14 -40 5 0 9
-7 9 -15 0 -18 31 -86 48 -103 6 -7 12 -18 12 -23 0 -31 141 -163 188 -175 12
-3 22 -9 22 -13 0 -4 26 -15 58 -25 31 -10 68 -23 82 -28 79 -31 320 -15 417
28 17 8 35 14 40 14 9 0 152 71 188 93 11 6 36 24 56 39 20 16 40 28 43 28 9
0 56 43 189 170 60 58 116 106 123 108 25 6 42 -17 49 -66 9 -65 22 -106 59
-181 29 -61 122 -171 144 -171 6 0 12 -3 14 -7 6 -14 72 -43 138 -59 70 -18
234 -14 254 6 6 6 20 10 33 10 13 0 31 4 41 9 9 5 47 24 83 41 37 18 78 43 92
56 15 13 30 24 34 24 14 0 163 161 163 176 0 3 11 20 24 37 13 18 38 61 56 97
18 36 36 72 40 80 4 9 11 31 15 50 4 19 11 40 15 45 8 10 10 25 26 159 12 105
-27 266 -89 360 -19 30 -88 99 -132 132 -84 63 -153 84 -272 84 -90 0 -195
-20 -217 -41 -6 -5 -17 -9 -25 -9 -15 0 -114 -60 -119 -72 -2 -5 -10 -8 -18
-8 -8 0 -14 -4 -14 -10 0 -5 -13 -16 -30 -25 -16 -8 -73 -58 -127 -110 -54
-52 -101 -95 -105 -95 -4 0 -8 -6 -9 -12 0 -7 -29 -38 -64 -68 -35 -30 -64
-61 -64 -67 -1 -7 -5 -13 -10 -13 -5 0 -31 -21 -58 -46 -54 -51 -142 -114
-160 -114 -6 0 -13 -5 -15 -12 -6 -16 -122 -15 -156 3 -38 19 -61 47 -84 98
-17 41 -18 49 -5 101 22 84 64 144 222 318 92 101 220 223 344 328 18 16 45
40 60 54 57 55 219 148 331 191 68 27 85 29 205 29 133 0 167 -7 273 -57 48
-23 57 -8 57 90 -1 84 -8 112 -51 203 -59 122 -219 238 -384 278 -60 14 -105
17 -220 14 -138 -4 -270 -24 -270 -40 0 -5 -10 -8 -23 -8 -13 0 -32 -7 -43
-15 -10 -8 -29 -15 -41 -15 -13 0 -23 -4 -23 -9 0 -5 -12 -12 -27 -16 -15 -3
-30 -10 -33 -13 -3 -4 -23 -16 -45 -26 -22 -11 -54 -30 -72 -43 -17 -13 -35
-23 -38 -23 -9 0 -99 -63 -103 -72 -2 -5 -10 -8 -17 -8 -7 0 -15 -4 -17 -8 -1
-5 -34 -32 -73 -61 -38 -29 -110 -89 -159 -134 -100 -92 -346 -335 -346 -342
0 -3 -24 -29 -52 -59 -106 -109 -188 -196 -188 -200 0 -3 -41 -46 -91 -97 -50
-51 -97 -102 -105 -113 -26 -39 -198 -206 -211 -206 -7 0 -13 -4 -13 -10 0
-12 -89 -78 -153 -113 -75 -42 -188 -34 -225 15 -7 9 -20 25 -30 34 -22 23
-24 147 -2 190 15 30 85 125 117 159 10 11 58 63 105 116 135 150 210 223 408
401 94 84 125 108 139 108 6 0 11 4 11 9 0 12 108 71 130 71 9 0 22 6 29 13
18 18 230 17 265 -3 26 -13 29 -13 42 5 16 22 18 94 3 150 -6 22 -13 52 -16
68 -3 15 -9 27 -13 27 -4 0 -11 11 -14 24 -3 13 -36 54 -73 92 -111 113 -224
155 -415 153 -62 -1 -133 -7 -158 -15z"/>
</g>
</svg>
